<?xml version="1.0" encoding="UTF-8" standalone="no"?>
<!-- Created with Inkscape (http://www.inkscape.org/) -->

<svg
   width="1280"
   height="640"
   viewBox="0 0 128 64"
   version="1.1"
   id="svg5"
   xml:space="preserve"
   inkscape:version="1.2 (dc2aedaf03, 2022-05-15)"
   sodipodi:docname="command-flow-banner.project.svg"
   inkscape:export-filename="..\png\command-flow-banner-1280x640.png"
   inkscape:export-xdpi="96"
   inkscape:export-ydpi="96"
   xmlns:inkscape="http://www.inkscape.org/namespaces/inkscape"
   xmlns:sodipodi="http://sodipodi.sourceforge.net/DTD/sodipodi-0.dtd"
   xmlns:xlink="http://www.w3.org/1999/xlink"
   xmlns="http://www.w3.org/2000/svg"
   xmlns:svg="http://www.w3.org/2000/svg"><sodipodi:namedview
     id="namedview7"
     pagecolor="#505050"
     bordercolor="#eeeeee"
     borderopacity="1"
     inkscape:showpageshadow="0"
     inkscape:pageopacity="0"
     inkscape:pagecheckerboard="false"
     inkscape:deskcolor="#505050"
     inkscape:document-units="px"
     showgrid="false"
     inkscape:zoom="0.70710678"
     inkscape:cx="673.87276"
     inkscape:cy="354.9676"
     inkscape:window-width="1920"
     inkscape:window-height="1017"
     inkscape:window-x="-8"
     inkscape:window-y="-8"
     inkscape:window-maximized="1"
     inkscape:current-layer="g2540" /><defs
     id="defs2"><linearGradient
       inkscape:collect="always"
       id="linearGradient9747"><stop
         style="stop-color:#ef64e5;stop-opacity:1;"
         offset="0"
         id="stop9743" /><stop
         style="stop-color:#ff92f8;stop-opacity:1;"
         offset="0.5247525"
         id="stop9751" /><stop
         style="stop-color:#ff94f8;stop-opacity:1;"
         offset="0.70420796"
         id="stop10479" /><stop
         style="stop-color:#ff97f8;stop-opacity:1;"
         offset="1"
         id="stop9745" /></linearGradient><linearGradient
       inkscape:collect="always"
       xlink:href="#linearGradient9747"
       id="linearGradient9749"
       x1="0"
       y1="57.2184"
       x2="128.00029"
       y2="57.2184"
       gradientUnits="userSpaceOnUse" /></defs><g
     inkscape:label="Layer 1"
     inkscape:groupmode="layer"
     id="layer1"><rect
       style="fill:#1c0f1b"
       id="rect184"
       width="128"
       height="64"
       x="0"
       y="0"
       ry="0"
       inkscape:label="background"
       sodipodi:insensitive="true" /><g
       id="g17416"
       transform="matrix(0.80750982,0,0,0.80750982,-4.9980307,5.2325902)"
       style="opacity:0.05;fill:#ffffff;fill-opacity:1"
       inkscape:label="command-flow-icon"><path
         id="path1201"
         style="opacity:1;fill:#ffffff;fill-opacity:1;stroke:none;stroke-width:0.158695"
         d="m 32,0 c -9.941095,0 -18,8.0589042 -18,18 0,9.941095 8.058905,18 18,18 h 10 c 4.418278,0 8,-3.581722 8,-8 0,-4.418278 -3.581722,-8 -8,-8 H 32 c -1.104567,0 -2,-0.895433 -2,-2 0,-1.104567 0.895433,-2 2,-2 h 10 c 4.418274,0 8,-3.581726 8,-8 0,-4.4182736 -3.581726,-8 -8,-8 z"
         sodipodi:nodetypes="ssccsccssssss" /><rect
         style="opacity:1;fill:#ffffff;fill-opacity:1;stroke:none;stroke-width:0.0821781;stroke-dasharray:none;stroke-opacity:1"
         id="rect1264"
         width="16"
         height="26"
         x="14"
         y="38"
         ry="6.8508525" /></g><path
       fill="#ff8df8"
       fill-opacity="1"
       d="M 0,62.3046 5.3333456,60.328399 C 10.666692,58.331007 21.333384,54.410394 32.000076,52.413001 42.666768,50.4368 53.333461,50.4368 64.000153,51.565301 c 10.666692,1.149692 21.333387,3.374905 32.000072,3.3908 10.666685,-0.0159 21.333375,-2.241108 26.666715,-3.3908 L 128.00029,50.4368 V 64 h -5.33335 c -5.33333,0 -16.00003,0 -26.666715,0 -10.666685,0 -21.33338,0 -32.000072,0 -10.666692,0 -21.333385,0 -32.000077,0 -10.666692,0 -21.333384,0 -26.6667304,0 H 0 Z"
       id="path7126-8"
       style="fill:url(#linearGradient9749);fill-opacity:1;stroke-width:0.0686255"
       inkscape:label="wave"
       sodipodi:insensitive="true" /><g
       id="g2540"
       inkscape:label="text part"><text
         xml:space="preserve"
         style="font-size:6.4px;fill:#ffffff;fill-opacity:0.89999998;stroke-width:0.533334"
         x="17.712"
         y="20.936016"
         id="text17884"><tspan
           sodipodi:role="line"
           id="tspan17882"
           style="font-style:normal;font-variant:normal;font-weight:500;font-stretch:normal;font-family:Rubik;-inkscape-font-specification:'Rubik Medium';fill:#ffffff;fill-opacity:0.89999998;stroke-width:0.533334"
           x="17.712"
           y="20.936016">command-flow</tspan></text><text
         xml:space="preserve"
         style="font-size:3.2px;line-height:1.2;writing-mode:lr-tb;white-space:pre;inline-size:61.4487;display:inline;fill:#ffffff;fill-opacity:0.7;stroke-width:0.366667"
         x="21.5844"
         y="20.506001"
         id="text17884-4"
         transform="translate(-3.6607844,7.0619995)"><tspan
           x="21.5844"
           y="20.506001"
           id="tspan4962"><tspan
             style="font-weight:300;font-family:Rubik;-inkscape-font-specification:'Rubik Light'"
             id="tspan4960">A flexible command framework which </tspan></tspan><tspan
           x="21.5844"
           y="24.351439"
           id="tspan4966"><tspan
             style="font-weight:300;font-family:Rubik;-inkscape-font-specification:'Rubik Light'"
             id="tspan4964">removes lots of boilerplate code used in </tspan></tspan><tspan
           x="21.5844"
           y="28.196877"
           id="tspan4970"><tspan
             style="font-weight:300;font-family:Rubik;-inkscape-font-specification:'Rubik Light'"
             id="tspan4968">commands</tspan></tspan></text></g><g
       fill="#ff8df8"
       id="g3645"
       transform="matrix(0.33333333,0,0,0.33333333,88.6667,15.533333)"><rect
         width="6"
         height="58"
         x="0"
         y="2"
         ry="3"
         id="rect3631" /><rect
         width="6"
         height="42"
         x="29"
         y="2"
         ry="3"
         id="rect3633" /><rect
         width="6"
         height="36"
         x="58"
         y="16.5"
         ry="3"
         id="rect3635" /><path
         d="m 64,19.5 a 17.5,17.5 0 0 0 -35,0 h 6 a 11.5,11.5 0 0 1 23,0 z"
         id="path3637" /><path
         d="m 0,27.5 a 17.5,17.5 0 0 0 35,0 h -6 a 11.5,11.5 0 0 1 -23,0 z"
         id="path3639" /><path
         d="M 58,49.5 A 6.5,6.5 0 0 1 51.5,56 v 6 A 12.5,12.5 0 0 0 64,49.5 Z"
         id="path3641" /><circle
         cx="51.5"
         cy="59"
         r="3"
         id="circle3643" /></g></g></svg>
