<?xml version="1.0" encoding="UTF-8" standalone="no"?>
<svg
   viewBox="0 0 64 64"
   version="1.1"
   sodipodi:docname="command-flow-logo-cooler-with-background.project.svg"
   inkscape:version="1.2 (dc2aedaf03, 2022-05-15)"
   inkscape:export-filename="..\png\command-flow-icon-cooler-with-background-128x128.png"
   inkscape:export-xdpi="192"
   inkscape:export-ydpi="192"
   id="svg19"
   xml:space="preserve"
   xmlns:inkscape="http://www.inkscape.org/namespaces/inkscape"
   xmlns:sodipodi="http://sodipodi.sourceforge.net/DTD/sodipodi-0.dtd"
   xmlns="http://www.w3.org/2000/svg"
   xmlns:svg="http://www.w3.org/2000/svg"><defs
     id="defs21" /><sodipodi:namedview
     id="namedview1457"
     pagecolor="#505050"
     bordercolor="#eeeeee"
     borderopacity="1"
     inkscape:pageshadow="0"
     inkscape:pageopacity="0"
     inkscape:pagecheckerboard="0"
     showgrid="true"
     inkscape:zoom="5.6568543"
     inkscape:cx="-12.109204"
     inkscape:cy="30.405592"
     inkscape:window-width="1920"
     inkscape:window-height="1017"
     inkscape:window-x="-8"
     inkscape:window-y="-8"
     inkscape:window-maximized="1"
     inkscape:current-layer="svg19"
     inkscape:showpageshadow="0"
     inkscape:deskcolor="#505050"><inkscape:grid
       type="xygrid"
       id="grid317"
       enabled="true"
       visible="true"
       dotted="false"
       empspacing="1" /></sodipodi:namedview><circle
     style="opacity:1;fill:#1c0f1b;fill-opacity:1;stroke:none;stroke-width:0.196827;stroke-dasharray:none;stroke-opacity:1"
     id="path8752"
     cx="32"
     cy="32"
     r="32" /><g
     id="g8756"
     inkscape:label="g8756"
     transform="matrix(0.6875,0,0,0.6875,10,10)"
     style="stroke:none;fill:#ff8df8;fill-opacity:1"><path
       id="path1201"
       style="opacity:1;fill:#ef64e5;fill-opacity:1;stroke:none;stroke-width:0.158695"
       d="m 32,0 c -9.941095,0 -18,8.0589042 -18,18 0,9.941095 8.058905,18 18,18 h 10 c 4.418278,0 8,-3.581722 8,-8 0,-4.418278 -3.581722,-8 -8,-8 H 32 c -1.104567,0 -2,-0.895433 -2,-2 0,-1.104567 0.895433,-2 2,-2 h 10 c 4.418274,0 8,-3.581726 8,-8 0,-4.4182736 -3.581726,-8 -8,-8 z"
       sodipodi:nodetypes="ssccsccssssss" /><rect
       style="opacity:1;fill:#ff8df8;fill-opacity:1;stroke:none;stroke-width:0.0821781;stroke-dasharray:none;stroke-opacity:1"
       id="rect1264"
       width="16"
       height="26"
       x="14"
       y="38"
       ry="6.8508525" /></g></svg>
