<?xml version="1.0" encoding="UTF-8" standalone="no"?>
<!-- Created with Inkscape (http://www.inkscape.org/) -->

<svg
   width="64"
   height="64"
   viewBox="0 0 64 64"
   version="1.1"
   id="svg5"
   xml:space="preserve"
   inkscape:export-filename="bitmap.png"
   inkscape:export-xdpi="192"
   inkscape:export-ydpi="192"
   inkscape:version="1.2 (dc2aedaf03, 2022-05-15)"
   sodipodi:docname="emojis-logo.project.svg"
   xmlns:inkscape="http://www.inkscape.org/namespaces/inkscape"
   xmlns:sodipodi="http://sodipodi.sourceforge.net/DTD/sodipodi-0.dtd"
   xmlns="http://www.w3.org/2000/svg"
   xmlns:svg="http://www.w3.org/2000/svg"><sodipodi:namedview
     id="namedview7"
     pagecolor="#505050"
     bordercolor="#eeeeee"
     borderopacity="1"
     inkscape:showpageshadow="0"
     inkscape:pageopacity="0"
     inkscape:pagecheckerboard="0"
     inkscape:deskcolor="#505050"
     inkscape:document-units="px"
     showgrid="true"
     inkscape:lockguides="false"
     inkscape:zoom="8.4359982"
     inkscape:cx="29.397825"
     inkscape:cy="25.011859"
     inkscape:window-width="1920"
     inkscape:window-height="1017"
     inkscape:window-x="-8"
     inkscape:window-y="-8"
     inkscape:window-maximized="1"
     inkscape:current-layer="layer1"><inkscape:grid
       type="xygrid"
       id="grid1776"
       empspacing="8" /></sodipodi:namedview><defs
     id="defs2"><filter
       style="color-interpolation-filters:sRGB"
       inkscape:label="Drop Shadow"
       id="filter3599"
       x="-0.14330974"
       y="-0.14330974"
       width="1.2866195"
       height="1.2866195"><feFlood
         flood-opacity="0.827451"
         flood-color="rgb(0,0,0)"
         result="flood"
         id="feFlood3589" /><feComposite
         in="flood"
         in2="SourceGraphic"
         operator="in"
         result="composite1"
         id="feComposite3591" /><feGaussianBlur
         in="composite1"
         stdDeviation="6"
         result="blur"
         id="feGaussianBlur3593" /><feOffset
         dx="0"
         dy="0"
         result="offset"
         id="feOffset3595" /><feComposite
         in="SourceGraphic"
         in2="offset"
         operator="over"
         result="composite2"
         id="feComposite3597" /></filter></defs><g
     inkscape:label="Layer 1"
     inkscape:groupmode="layer"
     id="layer1"><path
       id="rect6186"
       style="opacity:1;fill:#ff8df0;fill-opacity:1;stroke-width:1.9641"
       d="M 8 0 L 8 8 L 0 8 L 0 56 L 8 56 L 8 64 L 56 64 L 56 56 L 64 56 L 64 8 L 56 8 L 56 0 L 8 0 z M 16 8 L 24 8 L 24 24 L 16 24 L 16 8 z M 40 8 L 48 8 L 48 24 L 40 24 L 40 8 z M 8 40 L 16 40 L 16 48 L 48 48 L 48 40 L 56 40 L 56 48 L 48 48 L 48 56 L 16 56 L 16 48 L 8 48 L 8 40 z " /></g></svg>
