<?xml version="1.0" encoding="UTF-8" standalone="no"?>
<svg
   viewBox="0 0 64 64"
   version="1.1"
   sodipodi:docname="hephaestus-engine-logo.project.svg"
   inkscape:version="1.2 (dc2aedaf03, 2022-05-15)"
   inkscape:export-filename="..\png\hephaestus-icon-128x128.png"
   inkscape:export-xdpi="192"
   inkscape:export-ydpi="192"
   id="svg19"
   xml:space="preserve"
   xmlns:inkscape="http://www.inkscape.org/namespaces/inkscape"
   xmlns:sodipodi="http://sodipodi.sourceforge.net/DTD/sodipodi-0.dtd"
   xmlns="http://www.w3.org/2000/svg"
   xmlns:svg="http://www.w3.org/2000/svg"><defs
     id="defs21" /><sodipodi:namedview
     id="namedview1457"
     pagecolor="#505050"
     bordercolor="#eeeeee"
     borderopacity="1"
     inkscape:pageshadow="0"
     inkscape:pageopacity="0"
     inkscape:pagecheckerboard="0"
     showgrid="true"
     inkscape:zoom="8"
     inkscape:cx="21.9375"
     inkscape:cy="30.75"
     inkscape:window-width="1920"
     inkscape:window-height="1017"
     inkscape:window-x="-8"
     inkscape:window-y="-8"
     inkscape:window-maximized="1"
     inkscape:current-layer="svg19"
     inkscape:showpageshadow="0"
     inkscape:deskcolor="#505050"><inkscape:grid
       type="xygrid"
       id="grid317"
       enabled="false"
       visible="true" /></sodipodi:namedview><path
     style="opacity:1;fill:#ff8df8;fill-opacity:1;stroke:none;stroke-width:0.119975;stroke-dasharray:none"
     d="m 60.692259,26.732463 c 3.041666,0.195255 4.316562,-3.017971 2.404729,-4.866706 C 59.777502,18.655826 53.88619,12.762097 49.947572,12.374848 50.172919,10.22557 49.138118,5.6075798 48.197851,5.5880535 47.539859,5.6067572 45.929433,10.269985 46.183021,12.321827 28.290989,17.630509 31.437604,32.599533 38.811384,41.885184 28.369457,33.019622 32.390967,28.253506 27.538677,24.134527 18.044469,16.075146 17.158549,8.1347872 15.773214,1.6962084 1.2349155,8.6477082 13.117979,25.578181 20.204897,27.560067 13.308117,27.444991 8.875396,24.13894 4.9126742,12.79207 -5.6698879,27.594132 9.6496076,36.986809 19.923624,36.686462 13.941094,39.159111 7.0571753,36.152197 0.02351492,28.953073 -0.67674105,47.131812 14.415251,47.559781 24.919685,46.891603 19.69713,50.563786 10.322702,48.836388 3.7718077,44.670589 17.540635,71.67636 54.350277,63.723184 59.158946,47.030928 62.59858,35.090981 42.705305,30.903062 47.641121,21.94529 c 3.025996,6.002519 10.655375,-0.545497 13.051138,4.787173 z"
     id="path928"
     sodipodi:nodetypes="csccccscccccccscc" /></svg>
