<?xml version="1.0" encoding="UTF-8" standalone="no"?>
<!-- Created with Inkscape (http://www.inkscape.org/) -->

<svg
   width="64"
   height="64"
   viewBox="0 0 64 64"
   version="1.1"
   id="svg5"
   inkscape:version="1.2 (dc2aedaf03, 2022-05-15)"
   sodipodi:docname="inject-logo.project.svg"
   xml:space="preserve"
   inkscape:export-filename="..\png\inject-logo-128x128.png"
   inkscape:export-xdpi="192"
   inkscape:export-ydpi="192"
   xmlns:inkscape="http://www.inkscape.org/namespaces/inkscape"
   xmlns:sodipodi="http://sodipodi.sourceforge.net/DTD/sodipodi-0.dtd"
   xmlns="http://www.w3.org/2000/svg"
   xmlns:svg="http://www.w3.org/2000/svg"><sodipodi:namedview
     id="namedview7"
     pagecolor="#505050"
     bordercolor="#eeeeee"
     borderopacity="1"
     inkscape:showpageshadow="0"
     inkscape:pageopacity="0"
     inkscape:pagecheckerboard="0"
     inkscape:deskcolor="#505050"
     inkscape:document-units="px"
     showgrid="true"
     inkscape:zoom="11.930303"
     inkscape:cx="16.847854"
     inkscape:cy="31.600203"
     inkscape:window-width="1920"
     inkscape:window-height="1017"
     inkscape:window-x="-8"
     inkscape:window-y="-8"
     inkscape:window-maximized="1"
     inkscape:current-layer="layer1"><inkscape:grid
       type="xygrid"
       id="grid132"
       empspacing="1" /></sodipodi:namedview><defs
     id="defs2" /><g
     inkscape:label="Layer 1"
     inkscape:groupmode="layer"
     id="layer1"><path
       id="rect361"
       style="opacity:1;fill:#ff8df8;stroke-width:1.76765;fill-opacity:1"
       d="m 6.4325104,43.530365 c -1.6663963,1.666396 -1.6663978,4.349512 0,6.01591 l 3.007954,3.007954 -9.02386355,9.023864 c -0.5554677,0.555468 -0.5554679,1.449835 0,2.005304 0.5554681,0.555467 1.44983535,0.555467 2.00530325,0 l 9.0238649,-9.023864 3.007954,3.007954 c 1.666398,1.666397 4.349513,1.666397 6.01591,0 L 35.509407,42.527713 30.496149,37.514455 c -0.555466,-0.555466 -0.555465,-1.449839 0,-2.005302 0.555463,-0.555465 1.449836,-0.555466 2.005302,0 l 5.013258,5.013258 4.010606,-4.010606 -5.013258,-5.013258 c -0.555466,-0.555466 -0.555464,-1.44984 0,-2.005304 0.555466,-0.555465 1.449838,-0.555466 2.005304,0 l 5.013258,5.013258 4.010606,-4.010606 -5.013258,-5.013258 c -0.555467,-0.555468 -0.555466,-1.449838 0,-2.005304 0.555466,-0.555466 1.449837,-0.555466 2.005304,0 l 5.013258,5.013258 4.010606,-4.010606 c 1.666396,-1.666397 1.666396,-4.349512 0,-6.01591 l -3.007956,-3.007954 7.018562,-7.0185613 4.010606,4.0106063 c 0.555133,0.555132 1.450171,0.555132 2.005304,0 0.555131,-0.555132 0.555131,-1.450171 0,-2.005303 L 58.599768,5.4589787 58.541021,5.4002325 53.557139,0.416349 c -0.555134,-0.5551327 -1.450171,-0.5551313 -2.005303,0 -0.555133,0.5551327 -0.555133,1.450171 0,2.0053037 l 4.010606,4.0106062 -7.018561,7.0185611 -3.007955,-3.007955 c -1.666398,-1.6663973 -4.349512,-1.6663963 -6.015909,0 z" /></g></svg>
