<?xml version="1.0" encoding="UTF-8" standalone="no"?>
<!-- Created with Inkscape (http://www.inkscape.org/) -->

<svg
   width="1280"
   height="640"
   viewBox="0 0 128 64"
   version="1.1"
   id="svg5"
   xml:space="preserve"
   inkscape:version="1.2 (dc2aedaf03, 2022-05-15)"
   sodipodi:docname="inject-banner.project.svg"
   inkscape:export-filename="..\png\inject-banner-1280x640.png"
   inkscape:export-xdpi="96"
   inkscape:export-ydpi="96"
   xmlns:inkscape="http://www.inkscape.org/namespaces/inkscape"
   xmlns:sodipodi="http://sodipodi.sourceforge.net/DTD/sodipodi-0.dtd"
   xmlns:xlink="http://www.w3.org/1999/xlink"
   xmlns="http://www.w3.org/2000/svg"
   xmlns:svg="http://www.w3.org/2000/svg"><sodipodi:namedview
     id="namedview7"
     pagecolor="#505050"
     bordercolor="#eeeeee"
     borderopacity="1"
     inkscape:showpageshadow="0"
     inkscape:pageopacity="0"
     inkscape:pagecheckerboard="false"
     inkscape:deskcolor="#505050"
     inkscape:document-units="px"
     showgrid="false"
     inkscape:zoom="0.70710678"
     inkscape:cx="480.12551"
     inkscape:cy="349.31075"
     inkscape:window-width="1920"
     inkscape:window-height="1017"
     inkscape:window-x="-8"
     inkscape:window-y="-8"
     inkscape:window-maximized="1"
     inkscape:current-layer="g2540" /><defs
     id="defs2"><linearGradient
       inkscape:collect="always"
       id="linearGradient9747"><stop
         style="stop-color:#ef64e5;stop-opacity:1;"
         offset="0"
         id="stop9743" /><stop
         style="stop-color:#ff92f8;stop-opacity:1;"
         offset="0.5247525"
         id="stop9751" /><stop
         style="stop-color:#ff94f8;stop-opacity:1;"
         offset="0.70420796"
         id="stop10479" /><stop
         style="stop-color:#ff97f8;stop-opacity:1;"
         offset="1"
         id="stop9745" /></linearGradient><linearGradient
       inkscape:collect="always"
       xlink:href="#linearGradient9747"
       id="linearGradient9749"
       x1="0"
       y1="57.2184"
       x2="128.00029"
       y2="57.2184"
       gradientUnits="userSpaceOnUse" /></defs><g
     inkscape:label="Layer 1"
     inkscape:groupmode="layer"
     id="layer1"><rect
       style="fill:#1c0f1b"
       id="rect184"
       width="128"
       height="64"
       x="0"
       y="0"
       ry="0"
       inkscape:label="background"
       sodipodi:insensitive="true" /><path
       id="rect361"
       style="opacity:0.05;fill:#ffffff;fill-opacity:1;stroke-width:1.4274"
       d="m 11.501444,40.38382 c -1.345636,1.345633 -1.345636,3.512281 0,4.857918 l 2.428954,2.428954 -7.2868686,7.286868 c -0.4485725,0.448573 -0.4485725,1.170762 0,1.619311 0.4485725,0.448572 1.170754,0.448572 1.6193023,0 l 7.2868763,-7.286877 2.428954,2.428962 c 1.345637,1.345636 3.512278,1.345636 4.857915,0 L 34.981369,39.574167 30.933105,35.525905 c -0.448573,-0.448548 -0.448573,-1.170761 0,-1.619304 0.448572,-0.448548 1.170754,-0.448548 1.619302,0 l 4.048268,4.048262 3.238605,-3.238609 -4.04826,-4.048263 c -0.448573,-0.448548 -0.448573,-1.170761 0,-1.619304 0.44858,-0.448541 1.170758,-0.448549 1.619306,0 l 4.048264,4.048261 3.238605,-3.238609 -4.048256,-4.048262 c -0.448573,-0.448548 -0.448573,-1.170761 0,-1.619305 0.448572,-0.448549 1.170754,-0.448549 1.619302,0 l 4.048264,4.048262 3.238605,-3.23861 c 1.345636,-1.345634 1.345636,-3.51228 0,-4.857915 l -2.428954,-2.428956 5.667566,-5.667567 3.238613,3.238608 c 0.44825,0.448274 1.171029,0.448274 1.619303,0 0.448249,-0.448273 0.448249,-1.171028 0,-1.619304 l -4.02454,-4.0245429 -0.04764,-0.047401 -4.024539,-4.0245409 c -0.44825,-0.4482737 -1.171029,-0.4482737 -1.61931,0 -0.44825,0.4482738 -0.44825,1.1710286 0,1.6193048 l 3.238612,3.23861 -5.667566,5.667567 -2.428962,-2.428958 c -1.345628,-1.345633 -3.512278,-1.345633 -4.857907,0 z" /><path
       fill="#ff8df8"
       fill-opacity="1"
       d="M 0,62.3046 5.3333456,60.328399 C 10.666692,58.331007 21.333384,54.410394 32.000076,52.413001 42.666768,50.4368 53.333461,50.4368 64.000153,51.565301 c 10.666692,1.149692 21.333387,3.374905 32.000072,3.3908 10.666685,-0.0159 21.333375,-2.241108 26.666715,-3.3908 L 128.00029,50.4368 V 64 h -5.33335 c -5.33333,0 -16.00003,0 -26.666715,0 -10.666685,0 -21.33338,0 -32.000072,0 -10.666692,0 -21.333385,0 -32.000077,0 -10.666692,0 -21.333384,0 -26.6667304,0 H 0 Z"
       id="path7126-8"
       style="fill:url(#linearGradient9749);fill-opacity:1;stroke-width:0.0686255"
       inkscape:label="wave"
       sodipodi:insensitive="true" /><g
       id="g2540"
       inkscape:label="text part"><text
         xml:space="preserve"
         style="font-size:6.4px;fill:#ffffff;fill-opacity:0.9;stroke-width:0.533334"
         x="17.712"
         y="20.936016"
         id="text17884"><tspan
           sodipodi:role="line"
           id="tspan17882"
           style="font-style:normal;font-variant:normal;font-weight:500;font-stretch:normal;font-family:Rubik;-inkscape-font-specification:'Rubik Medium';fill:#ffffff;fill-opacity:0.9;stroke-width:0.533334"
           x="17.712"
           y="20.936016">inject</tspan></text><text
         xml:space="preserve"
         style="font-size:3.2px;line-height:1.2;writing-mode:lr-tb;white-space:pre;inline-size:61.4487;display:inline;fill:#ffffff;fill-opacity:0.7;stroke-width:0.366667"
         x="21.5844"
         y="20.506001"
         id="text17884-4"
         transform="translate(-3.6607844,7.0619995)"><tspan
           x="21.5844"
           y="20.506001"
           id="tspan5315"><tspan
             style="font-weight:300;font-family:Rubik;-inkscape-font-specification:'Rubik Light'"
             id="tspan5313">A fast and very lightweight dependency </tspan></tspan><tspan
           x="21.5844"
           y="24.351439"
           id="tspan5319"><tspan
             style="font-weight:300;font-family:Rubik;-inkscape-font-specification:'Rubik Light'"
             id="tspan5317">injection library for Java 8+</tspan></tspan></text></g><g
       fill="#ff8df8"
       id="g3645"
       transform="matrix(0.33333333,0,0,0.33333333,88.6667,15.533333)"><rect
         width="6"
         height="58"
         x="0"
         y="2"
         ry="3"
         id="rect3631" /><rect
         width="6"
         height="42"
         x="29"
         y="2"
         ry="3"
         id="rect3633" /><rect
         width="6"
         height="36"
         x="58"
         y="16.5"
         ry="3"
         id="rect3635" /><path
         d="m 64,19.5 a 17.5,17.5 0 0 0 -35,0 h 6 a 11.5,11.5 0 0 1 23,0 z"
         id="path3637" /><path
         d="m 0,27.5 a 17.5,17.5 0 0 0 35,0 h -6 a 11.5,11.5 0 0 1 -23,0 z"
         id="path3639" /><path
         d="M 58,49.5 A 6.5,6.5 0 0 1 51.5,56 v 6 A 12.5,12.5 0 0 0 64,49.5 Z"
         id="path3641" /><circle
         cx="51.5"
         cy="59"
         r="3"
         id="circle3643" /></g></g></svg>
