<svg viewBox="0 0 64 64" version="1.1" xmlns="http://www.w3.org/2000/svg">
  <g fill="#ff8df8">
    <rect width="6" height="58" x="0" y="2" ry="3.0"/>
    <rect width="6" height="42" x="29.0" y="2" ry="3.0"/>
    <rect width="6" height="36" x="58" y="16.5" ry="3.0" />
    <path d="M 64 19.5 a 17.5 17.5 0 0 0 -35.0 0 h 6 a 11.5 11.5 0 0 1 23.0 0 z"/>
    <path d="M 0 27.5 a 17.5 17.5 0 0 0 35.0 0 h -6 a 11.5 11.5 0 0 1 -23.0 0 z"/>
    <path d="M 58 49.5 a 6.5 6.5 0 0 1 -6.5 6.5 v 6 a 12.5 12.5 0 0 0 12.5 -12.5 z"/>
    <circle cx="51.5" cy="59.0" r="3.0" />
  </g>
</svg>